<svg width="32" height="34" viewBox="0 0 32 34" fill="none" xmlns="http://www.w3.org/2000/svg">
<path d="M16.5 28.2336H5.96246C5.8356 28.2354 5.70968 28.2106 5.59215 28.1606C5.47461 28.1107 5.36784 28.0366 5.27813 27.9428C5.18841 27.849 5.11758 27.7373 5.0698 27.6144C5.02203 27.4915 4.99828 27.3598 4.99996 27.2272V16.2082C4.99996 13.0189 6.21156 9.96015 8.36823 7.70494C10.5249 5.44973 13.45 4.18277 16.5 4.18277V4.18277C18.0102 4.18277 19.5056 4.49382 20.9008 5.09815C22.2961 5.70249 23.5638 6.58827 24.6317 7.70494C25.6996 8.8216 26.5466 10.1473 27.1246 11.6063C27.7025 13.0653 28 14.629 28 16.2082V16.2082C28 17.7874 27.7025 19.3512 27.1246 20.8101C26.5466 22.2691 25.6996 23.5948 24.6317 24.7115C23.5638 25.8281 22.2961 26.7139 20.9008 27.3183C19.5056 27.9226 18.0102 28.2336 16.5 28.2336V28.2336Z" stroke="black" stroke-linecap="round" stroke-linejoin="round"/>
<path d="M16.5 17.7767C17.0523 17.7767 17.5 17.3086 17.5 16.7311C17.5 16.1535 17.0523 15.6854 16.5 15.6854C15.9477 15.6854 15.5 16.1535 15.5 16.7311C15.5 17.3086 15.9477 17.7767 16.5 17.7767Z" fill="black"/>
<path d="M10.5 17.7767C11.0523 17.7767 11.5 17.3086 11.5 16.7311C11.5 16.1535 11.0523 15.6854 10.5 15.6854C9.94772 15.6854 9.5 16.1535 9.5 16.7311C9.5 17.3086 9.94772 17.7767 10.5 17.7767Z" fill="black"/>
<path d="M22.5 17.7767C23.0523 17.7767 23.5 17.3086 23.5 16.7311C23.5 16.1535 23.0523 15.6854 22.5 15.6854C21.9477 15.6854 21.5 16.1535 21.5 16.7311C21.5 17.3086 21.9477 17.7767 22.5 17.7767Z" fill="black"/>
</svg>
