<svg width="12" height="11" viewBox="0 0 12 11" fill="none" xmlns="http://www.w3.org/2000/svg">
<path d="M6.25383 9.16821L9.1613 10.9275C9.53627 11.1529 9.99778 10.8175 9.88817 10.4052L9.04593 7.2495C9.02315 7.16202 9.02677 7.0702 9.05637 6.9846C9.08597 6.89901 9.14034 6.82312 9.21322 6.76569L11.8207 4.69304C12.1611 4.42365 11.988 3.87937 11.5438 3.85188L8.14022 3.64297C8.04736 3.63782 7.95807 3.607 7.88329 3.55427C7.8085 3.50155 7.75145 3.42921 7.7191 3.34609L6.44997 0.300329C6.41637 0.212311 6.35517 0.136277 6.27467 0.0825489C6.19417 0.0288205 6.09828 0 6 0C5.90172 0 5.80583 0.0288205 5.72533 0.0825489C5.64483 0.136277 5.58363 0.212311 5.55003 0.300329L4.2809 3.34609C4.24855 3.42921 4.1915 3.50155 4.11671 3.55427C4.04193 3.607 3.95264 3.63782 3.85978 3.64297L0.456183 3.85188C0.0119858 3.87937 -0.161078 4.42365 0.179281 4.69304L2.78678 6.76569C2.85966 6.82312 2.91403 6.89901 2.94363 6.9846C2.97323 7.0702 2.97685 7.16202 2.95407 7.2495L2.17529 10.1743C2.0426 10.6691 2.59641 11.0704 3.04061 10.801L5.74617 9.16821C5.82204 9.12224 5.91009 9.09782 6 9.09782C6.08991 9.09782 6.17796 9.12224 6.25383 9.16821Z" fill="#FFC749"/>
</svg>
