<svg width="32" height="34" viewBox="0 0 32 34" fill="none" xmlns="http://www.w3.org/2000/svg">
<path d="M16.5 28.2336H5.96251C5.83564 28.2354 5.70973 28.2106 5.5922 28.1606C5.47466 28.1106 5.36789 28.0366 5.27817 27.9428C5.18846 27.849 5.11762 27.7373 5.06985 27.6144C5.02207 27.4915 4.99833 27.3598 5.00001 27.2272V16.2082C5.00001 13.0189 6.21161 9.96014 8.36828 7.70493C10.5249 5.44972 13.45 4.18276 16.5 4.18276V4.18276C18.0102 4.18276 19.5056 4.49381 20.9009 5.09814C22.2961 5.70248 23.5639 6.58827 24.6317 7.70493C25.6996 8.8216 26.5467 10.1473 27.1246 11.6063C27.7026 13.0653 28 14.629 28 16.2082V16.2082C28 17.7874 27.7026 19.3511 27.1246 20.8101C26.5467 22.2691 25.6996 23.5948 24.6317 24.7115C23.5639 25.8281 22.2961 26.7139 20.9009 27.3183C19.5056 27.9226 18.0102 28.2336 16.5 28.2336V28.2336Z" stroke="black" stroke-linecap="round" stroke-linejoin="round"/>
<path d="M16.5 17.7767C17.0523 17.7767 17.5 17.3086 17.5 16.731C17.5 16.1535 17.0523 15.6854 16.5 15.6854C15.9477 15.6854 15.5 16.1535 15.5 16.731C15.5 17.3086 15.9477 17.7767 16.5 17.7767Z" fill="black"/>
<path d="M10.5 17.7767C11.0523 17.7767 11.5 17.3086 11.5 16.731C11.5 16.1535 11.0523 15.6854 10.5 15.6854C9.94772 15.6854 9.5 16.1535 9.5 16.731C9.5 17.3086 9.94772 17.7767 10.5 17.7767Z" fill="black"/>
<path d="M22.5 17.7767C23.0523 17.7767 23.5 17.3086 23.5 16.731C23.5 16.1535 23.0523 15.6854 22.5 15.6854C21.9477 15.6854 21.5 16.1535 21.5 16.731C21.5 17.3086 21.9477 17.7767 22.5 17.7767Z" fill="black"/>
</svg>
